<svg width="20" height="20" viewBox="0 0 20 20" fill="none" xmlns="http://www.w3.org/2000/svg">
<path d="M10 11.5832C10.8745 11.5832 11.5834 10.8743 11.5834 9.99984C11.5834 9.12539 10.8745 8.4165 10 8.4165C9.12557 8.4165 8.41669 9.12539 8.41669 9.99984C8.41669 10.8743 9.12557 11.5832 10 11.5832Z" stroke="#484964" stroke-width="1.5" stroke-linecap="round" stroke-linejoin="round"/>
<path d="M15.8333 11.5832C16.7078 11.5832 17.4167 10.8743 17.4167 9.99984C17.4167 9.12539 16.7078 8.4165 15.8333 8.4165C14.9589 8.4165 14.25 9.12539 14.25 9.99984C14.25 10.8743 14.9589 11.5832 15.8333 11.5832Z" stroke="#484964" stroke-width="1.5" stroke-linecap="round" stroke-linejoin="round"/>
<path d="M4.16665 11.5832C5.0411 11.5832 5.74998 10.8743 5.74998 9.99984C5.74998 9.12539 5.0411 8.4165 4.16665 8.4165C3.2922 8.4165 2.58331 9.12539 2.58331 9.99984C2.58331 10.8743 3.2922 11.5832 4.16665 11.5832Z" stroke="#484964" stroke-width="1.5" stroke-linecap="round" stroke-linejoin="round"/>
</svg>
