<svg width="22" height="22" viewBox="0 0 22 22" fill="none" xmlns="http://www.w3.org/2000/svg">
<path d="M11.1833 9.35002C14.8284 9.35002 17.7833 7.87255 17.7833 6.05001C17.7833 4.22746 14.8284 2.75 11.1833 2.75C7.53824 2.75 4.58331 4.22746 4.58331 6.05001C4.58331 7.87255 7.53824 9.35002 11.1833 9.35002Z" stroke="#808192" stroke-width="1.5" stroke-linecap="round" stroke-linejoin="round"/>
<path d="M17.7834 6.0498V15.9498C17.7834 17.7752 14.8237 19.2498 11.1833 19.2498C7.54301 19.2498 4.58331 17.7752 4.58331 15.9498V6.0498" stroke="#808192" stroke-width="1.5" stroke-linecap="round" stroke-linejoin="round"/>
<path d="M17.7834 9.3501C17.7834 11.1754 14.8237 12.6501 11.1833 12.6501C7.54301 12.6501 4.58331 11.1754 4.58331 9.3501" stroke="#808192" stroke-width="1.5" stroke-linecap="round" stroke-linejoin="round"/>
<path d="M17.7834 12.6499C17.7834 14.4752 14.8237 15.9499 11.1833 15.9499C7.54301 15.9499 4.58331 14.4752 4.58331 12.6499" stroke="#808192" stroke-width="1.5" stroke-linecap="round" stroke-linejoin="round"/>
</svg>
