<svg width="17" height="16" viewBox="0 0 17 16" fill="none" xmlns="http://www.w3.org/2000/svg">
<path d="M12.9678 15.8957C12.8327 15.8954 12.6998 15.8622 12.5803 15.799L8.33283 13.5657L4.08533 15.799C3.9478 15.8711 3.79288 15.9033 3.63803 15.892C3.48317 15.8807 3.33456 15.8264 3.20893 15.7352C3.0833 15.6439 2.98565 15.5194 2.92701 15.3757C2.86836 15.2319 2.85104 15.0746 2.877 14.9215L3.68783 10.1915L0.251165 6.84154C0.13999 6.73299 0.0613764 6.59552 0.0242019 6.44466C-0.0129726 6.29379 -0.00722774 6.13554 0.0407879 5.98776C0.0888035 5.83999 0.177177 5.70858 0.295931 5.60838C0.414684 5.50818 0.559086 5.44318 0.712831 5.42071L5.462 4.73071L7.58616 0.427374C7.66268 0.297242 7.77187 0.189354 7.9029 0.114393C8.03394 0.0394325 8.18229 0 8.33325 0C8.48421 0 8.63256 0.0394325 8.76359 0.114393C8.89463 0.189354 9.00381 0.297242 9.08033 0.427374L11.2037 4.73071L15.9528 5.42071C16.1066 5.44318 16.251 5.50818 16.3697 5.60838C16.4885 5.70858 16.5769 5.83999 16.6249 5.98776C16.6729 6.13554 16.6786 6.29379 16.6415 6.44466C16.6043 6.59552 16.5257 6.73299 16.4145 6.84154L12.9778 10.1915L13.7895 14.9215C13.81 15.0411 13.8041 15.1637 13.7724 15.2808C13.7406 15.3979 13.6836 15.5066 13.6054 15.5993C13.5273 15.6921 13.4298 15.7667 13.3198 15.8179C13.2098 15.8691 13.09 15.8956 12.9687 15.8957H12.9678Z" fill="#6C6C84"/>
</svg>
