<svg width="11" height="11" viewBox="0 0 11 11" fill="none" xmlns="http://www.w3.org/2000/svg">
<path fill-rule="evenodd" clip-rule="evenodd" d="M10.8044 1.02426C11.0387 0.78995 11.0387 0.410051 10.8044 0.175736C10.5701 -0.0585787 10.1902 -0.0585787 9.95588 0.175736L5.49007 4.64154L1.02426 0.175736C0.78995 -0.0585787 0.410051 -0.0585787 0.175736 0.175736C-0.0585787 0.410051 -0.0585787 0.78995 0.175736 1.02426L4.64154 5.49007L0.175736 9.95588C-0.0585787 10.1902 -0.0585787 10.5701 0.175736 10.8044C0.410051 11.0387 0.78995 11.0387 1.02426 10.8044L5.49007 6.3386L9.95588 10.8044C10.1902 11.0387 10.5701 11.0387 10.8044 10.8044C11.0387 10.5701 11.0387 10.1902 10.8044 9.95588L6.3386 5.49007L10.8044 1.02426Z" fill="#484964"/>
</svg>
