<svg width="24" height="24" viewBox="0 0 24 24" fill="none" xmlns="http://www.w3.org/2000/svg">
<path d="M12.9401 12.0002L17.8001 7.14017C17.9094 7.01264 17.9664 6.84859 17.96 6.68081C17.9535 6.51302 17.8839 6.35386 17.7652 6.23513C17.6465 6.1164 17.4873 6.04685 17.3195 6.04037C17.1517 6.03389 16.9877 6.09096 16.8601 6.20017L12.0001 11.0602L7.14015 6.19351C7.01261 6.08429 6.84856 6.02722 6.68078 6.0337C6.51299 6.04018 6.35383 6.10974 6.2351 6.22847C6.11637 6.3472 6.04682 6.50635 6.04034 6.67414C6.03386 6.84192 6.09093 7.00597 6.20015 7.13351L11.0601 12.0002L6.19348 16.8602C6.12369 16.9199 6.06701 16.9935 6.02699 17.0762C5.98698 17.1589 5.96449 17.249 5.96095 17.3408C5.9574 17.4326 5.97287 17.5242 6.00639 17.6097C6.0399 17.6953 6.09074 17.773 6.15571 17.8379C6.22068 17.9029 6.29838 17.9537 6.38393 17.9873C6.46948 18.0208 6.56103 18.0363 6.65285 18.0327C6.74466 18.0292 6.83475 18.0067 6.91746 17.9667C7.00017 17.9266 7.07371 17.87 7.13348 17.8002L12.0001 12.9402L16.8601 17.8002C16.9877 17.9094 17.1517 17.9665 17.3195 17.96C17.4873 17.9535 17.6465 17.8839 17.7652 17.7652C17.8839 17.6465 17.9535 17.4873 17.96 17.3195C17.9664 17.1518 17.9094 16.9877 17.8001 16.8602L12.9401 12.0002Z" fill="black"/>
</svg>
