<svg width="80" height="80" viewBox="0 0 80 80" fill="none" xmlns="http://www.w3.org/2000/svg">
<path d="M20 5C18.0109 5 16.1032 5.79018 14.6967 7.1967C13.2902 8.60322 12.5 10.5109 12.5 12.5V67.5C12.5 69.4891 13.2902 71.3968 14.6967 72.8033C16.1032 74.2098 18.0109 75 20 75H60C61.9891 75 63.8968 74.2098 65.3033 72.8033C66.7098 71.3968 67.5 69.4891 67.5 67.5V27.07C67.4989 25.0819 66.7085 23.1756 65.3025 21.77L50.7325 7.195C49.3259 5.7893 47.4186 4.99976 45.43 5H20ZM17.5 12.5C17.5 11.837 17.7634 11.2011 18.2322 10.7322C18.7011 10.2634 19.337 10 20 10H42.5V22.5C42.5 24.4891 43.2902 26.3968 44.6967 27.8033C46.1032 29.2098 48.0109 30 50 30H62.5V67.5C62.5 68.163 62.2366 68.7989 61.7678 69.2678C61.2989 69.7366 60.663 70 60 70H20C19.337 70 18.7011 69.7366 18.2322 69.2678C17.7634 68.7989 17.5 68.163 17.5 67.5V12.5ZM61.465 25H50C49.337 25 48.7011 24.7366 48.2322 24.2678C47.7634 23.7989 47.5 23.163 47.5 22.5V11.035L61.465 25Z" fill="#ABACBE"/>
<path d="M30.6435 35.868C30.4289 36.1892 30.3143 36.5668 30.3143 36.9531C30.3143 37.4711 30.5201 37.9679 30.8864 38.3342C31.2527 38.7005 31.7494 38.9063 32.2674 38.9063C32.6537 38.9063 33.0313 38.7917 33.3525 38.5771C33.6737 38.3625 33.9241 38.0574 34.0719 37.7006C34.2197 37.3437 34.2584 36.951 34.183 36.5721C34.1077 36.1932 33.9217 35.8452 33.6485 35.5721C33.3754 35.2989 33.0273 35.1129 32.6485 35.0375C32.2696 34.9622 31.8769 35.0008 31.52 35.1487C31.1631 35.2965 30.8581 35.5468 30.6435 35.868Z" fill="#ABACBE"/>
<path d="M49.5023 37.7818C49.7221 37.562 49.8456 37.2639 49.8456 36.9531C49.8456 36.6423 49.7221 36.3443 49.5023 36.1245C49.2826 35.9047 48.9845 35.7813 48.6737 35.7813H43.9862C43.6754 35.7813 43.3773 35.9047 43.1575 36.1245C42.9378 36.3443 42.8143 36.6423 42.8143 36.9531C42.8143 37.2639 42.9378 37.562 43.1575 37.7818C43.3773 38.0015 43.6754 38.125 43.9862 38.125H48.6737C48.9845 38.125 49.2826 38.0015 49.5023 37.7818Z" fill="#ABACBE"/>
<path d="M44.5729 49.9932C46.1764 49.0676 47.5082 47.7363 48.4342 46.133C48.5857 45.8642 48.6251 45.5463 48.5438 45.2486C48.4625 44.951 48.267 44.6974 47.9999 44.5429C47.7328 44.3885 47.4155 44.3456 47.117 44.4237C46.8184 44.5017 46.5627 44.6943 46.4053 44.9598C45.6851 46.2072 44.6491 47.243 43.4017 47.9632C42.1542 48.6834 40.7391 49.0626 39.2987 49.0626C37.8583 49.0626 36.4432 48.6834 35.1957 47.9632C33.9483 47.243 32.9123 46.2072 32.192 44.9598C32.1158 44.8249 32.0137 44.7066 31.8914 44.6115C31.7692 44.5164 31.6293 44.4465 31.4799 44.4058C31.3305 44.365 31.1744 44.3544 31.0209 44.3743C30.8673 44.3943 30.7192 44.4445 30.5851 44.522C30.4511 44.5996 30.3337 44.7029 30.2398 44.8261C30.146 44.9493 30.0774 45.0898 30.0382 45.2396C29.999 45.3895 29.9898 45.5456 30.0113 45.6989C30.0328 45.8523 30.0845 45.9999 30.1633 46.1332C31.0895 47.7365 32.4212 49.0678 34.0248 49.9934C35.6284 50.9189 37.4473 51.4062 39.2988 51.4062C41.1504 51.4062 42.9693 50.9189 44.5729 49.9932Z" fill="#ABACBE"/>
</svg>
