<svg width="140" height="65" viewBox="0 0 140 65" fill="none" xmlns="http://www.w3.org/2000/svg">
<path d="M7.14 61.376V58.394H10.878V57.232H3.556V53.55H10.766V52.388H2.114V58.394H5.698V61.376H0.714V62.566H12.166V61.376H7.14ZM18.5909 57.386H15.5529V53.634H18.5909V57.386ZM22.6229 54.726V56.266H19.9909V54.726H22.6229ZM19.9909 57.428H22.6229V60.662H24.0649V51.436H22.6229V53.55H19.9909V52.486H14.1389V58.534H19.9909V57.428ZM17.2889 62.664V59.822H15.8329V63.84H24.3589V62.664H17.2889ZM38.5623 51.422V64.106H40.0183V51.422H38.5623ZM33.2843 52.36C31.4083 52.36 30.0363 54.096 30.0363 56.812C30.0363 59.556 31.4083 61.278 33.2843 61.278C35.1743 61.278 36.5463 59.556 36.5463 56.812C36.5463 54.096 35.1743 52.36 33.2843 52.36ZM33.2843 53.662C34.3903 53.662 35.1603 54.852 35.1603 56.812C35.1603 58.8 34.3903 59.99 33.2843 59.99C32.1923 59.99 31.4223 58.8 31.4223 56.812C31.4223 54.852 32.1923 53.662 33.2843 53.662ZM43.1673 52.626V60.984H49.1033V52.626H43.1673ZM47.6893 53.774V59.822H44.5813V53.774H47.6893ZM51.4413 51.422V64.106H52.8973V51.422H51.4413ZM60.0362 53.886H62.8502V52.696H55.7662V53.886H58.5802V55.09C58.5802 57.26 57.2782 59.612 55.3182 60.522L56.1442 61.67C57.6282 60.956 58.7622 59.458 59.3222 57.694C59.9102 59.332 61.0442 60.704 62.5142 61.348L63.3122 60.214C61.3382 59.374 60.0362 57.19 60.0362 55.09V53.886ZM64.3202 51.436V64.078H65.7762V51.436H64.3202ZM68.8691 52.766V53.942H73.2931C72.9991 56.854 71.3331 59.08 68.2391 60.662L69.0371 61.768C73.1671 59.682 74.7351 56.434 74.7351 52.766H68.8691ZM79.9571 56.42H78.0391V51.422H76.5971V64.064H78.0391V57.624H79.9571V56.42ZM85.8305 54.894C85.8305 53.844 86.6285 53.158 87.7345 53.158C88.8405 53.158 89.6525 53.844 89.6525 54.894C89.6525 55.958 88.8405 56.658 87.7345 56.658C86.6285 56.658 85.8305 55.958 85.8305 54.894ZM93.3065 55.468V58.128H94.7485V51.45H93.3065V54.278H90.9545C90.6745 52.892 89.4005 51.968 87.7345 51.968C85.8445 51.968 84.4445 53.172 84.4445 54.894C84.4445 56.644 85.8445 57.848 87.7345 57.848C89.4145 57.848 90.6885 56.896 90.9685 55.468H93.3065ZM88.8405 62.818H87.0345V61.348H88.8405V62.818ZM88.8405 58.856V60.284H87.0345V58.856H85.6905V63.924H90.1705V58.856H88.8405ZM93.8245 58.758H92.3965V59.766C92.3965 61.012 91.6825 62.328 90.1705 62.958L90.8985 64.05C91.9625 63.602 92.6765 62.79 93.0965 61.838C93.4885 62.804 94.2165 63.616 95.3365 64.05L96.0505 62.958C94.5245 62.398 93.8245 61.11 93.8245 59.766V58.758ZM107.977 55.216C105.471 54.894 103.609 53.508 103.609 52.052V51.562H102.125V52.052C102.125 53.522 100.291 54.894 97.7574 55.216L98.2894 56.336C100.347 56.056 102.055 55.104 102.867 53.788C103.693 55.104 105.401 56.056 107.459 56.336L107.977 55.216ZM105.681 62.776H99.9834V61.418H105.681V62.776ZM105.681 60.312H99.9834V59.024H98.5554V63.924H107.123V59.024H105.681V60.312ZM97.1414 57.092V58.24H108.593V57.092H97.1414ZM112.204 52.668H110.776V60.886H111.854C113.814 60.886 115.858 60.732 118.028 60.284L117.874 59.08C115.886 59.486 113.996 59.64 112.204 59.654V52.668ZM119.036 51.436V64.078H120.478V51.436H119.036ZM124.859 53.802H129.297V52.626H123.417V60.984H124.453C126.735 60.984 128.443 60.914 130.361 60.564L130.207 59.374C128.443 59.682 126.903 59.766 124.859 59.78V53.802ZM134.673 56.294H132.699V51.422H131.257V64.092H132.699V57.484H134.673V56.294ZM137.164 63.182C137.766 63.182 138.242 62.72 138.242 62.062C138.242 61.39 137.766 60.914 137.164 60.914C136.562 60.914 136.086 61.39 136.086 62.062C136.086 62.72 136.562 63.182 137.164 63.182Z" fill="#6C6C84"/>
<rect x="52" width="36" height="36" rx="15" fill="#F7F7F8"/>
<path d="M62.9999 13.7273C62.9999 13.004 63.2872 12.3103 63.7987 11.7988C64.3101 11.2873 65.0038 11 65.7272 11H73.909C74.6323 11 75.326 11.2873 75.8374 11.7988C76.3489 12.3103 76.6362 13.004 76.6362 13.7273V21.9091C76.6362 22.6324 76.3489 23.3261 75.8374 23.8376C75.326 24.349 74.6323 24.6364 73.909 24.6364H65.7272C65.0038 24.6364 64.3101 24.349 63.7987 23.8376C63.2872 23.3261 62.9999 22.6324 62.9999 21.9091V13.7273Z" stroke="#6C6C84" stroke-width="1.66667" stroke-linecap="round" stroke-linejoin="round"/>
<path d="M67.4317 17.1361C68.3731 17.1361 69.1363 16.373 69.1363 15.4316C69.1363 14.4902 68.3731 13.7271 67.4317 13.7271C66.4903 13.7271 65.7272 14.4902 65.7272 15.4316C65.7272 16.373 66.4903 17.1361 67.4317 17.1361Z" stroke="#6C6C84" stroke-width="1.66667" stroke-linecap="round" stroke-linejoin="round"/>
<path d="M71.5404 18.2417L65.7272 24.6364H73.9997C74.6989 24.6364 75.3696 24.3586 75.864 23.8642C76.3585 23.3697 76.6363 22.6991 76.6363 21.9998V21.9092C76.6363 21.5914 76.5169 21.4694 76.3022 21.2342L73.5544 18.2376C73.4264 18.0979 73.2706 17.9864 73.0971 17.9103C72.9235 17.8341 72.736 17.795 72.5465 17.7954C72.357 17.7958 72.1696 17.8357 71.9964 17.9125C71.8232 17.9893 71.6678 18.1014 71.5404 18.2417V18.2417Z" stroke="#6C6C84" stroke-width="1.66667" stroke-linecap="round" stroke-linejoin="round"/>
</svg>
