<svg width="178" height="83" viewBox="0 0 178 83" fill="none" xmlns="http://www.w3.org/2000/svg">
<path d="M74.514 71.872H76.236V77.78C75.662 77.808 75.074 77.836 74.514 77.85V71.872ZM77.636 71.872H78.868V70.71H71.882V71.872H73.114V77.864C72.568 77.864 72.036 77.864 71.56 77.864L71.714 79.054C73.912 79.054 76.838 79.012 79.456 78.578L79.372 77.514C78.812 77.584 78.224 77.64 77.636 77.696V71.872ZM83.474 74.378H81.5V69.436H80.058V82.092H81.5V75.568H83.474V74.378ZM95.0089 69.422H93.5669V75.848H95.0089V69.422ZM86.2309 72.698C86.2309 71.69 87.0429 71.032 88.1349 71.032C89.2409 71.032 90.0669 71.69 90.0669 72.698C90.0669 73.706 89.2409 74.364 88.1349 74.364C87.0429 74.364 86.2309 73.706 86.2309 72.698ZM91.4669 72.698C91.4669 71.032 90.0529 69.842 88.1349 69.842C86.2309 69.842 84.8309 71.032 84.8309 72.698C84.8309 74.364 86.2309 75.54 88.1349 75.54C90.0529 75.54 91.4669 74.364 91.4669 72.698ZM88.1629 80.79V79.67H95.0089V76.422H86.7209V77.556H93.5809V78.606H86.7489V81.924H95.3869V80.79H88.1629ZM103.184 70.71C105.144 70.71 106.194 71.088 106.194 71.816C106.194 72.53 105.144 72.908 103.184 72.908C101.224 72.908 100.174 72.53 100.174 71.816C100.174 71.088 101.224 70.71 103.184 70.71ZM103.184 73.986C106.012 73.986 107.692 73.216 107.692 71.816C107.692 70.402 106.012 69.632 103.184 69.632C100.342 69.632 98.6758 70.402 98.6758 71.816C98.6758 73.216 100.342 73.986 103.184 73.986ZM100.272 79.81H107.468V76.786H98.8158V77.878H106.054V78.788H98.8438V81.966H107.832V80.86H100.272V79.81ZM97.4578 74.728V75.876H108.91V74.728H97.4578ZM121.013 75.442C119.095 74.91 117.947 73.566 117.947 72.11V71.97H120.607V70.822H117.961V69.394H116.505V70.822H113.845V71.97H116.505V72.11C116.505 73.664 115.399 75.092 113.453 75.652L114.139 76.786C115.637 76.324 116.701 75.372 117.261 74.154C117.835 75.274 118.913 76.156 120.369 76.562L121.013 75.442ZM117.079 78.648H122.553V80.776H117.079V78.648ZM115.665 81.924H123.967V77.5H115.665V81.924ZM122.525 69.436V72.852H120.285V74.042H122.525V76.884H123.967V69.436H122.525ZM134.97 74.294H129.188V72.684H134.97V74.294ZM136.412 69.926H134.97V71.522H129.188V69.926H127.746V75.456H136.412V69.926ZM137.826 76.828H126.36V77.99H131.33V82.092H132.772V77.99H137.826V76.828ZM142.935 78.172C141.913 78.172 141.171 77.472 141.171 76.408C141.171 75.344 141.913 74.644 142.935 74.644C143.957 74.644 144.699 75.344 144.699 76.408C144.699 77.472 143.957 78.172 142.935 78.172ZM142.935 73.454C141.115 73.454 139.799 74.686 139.799 76.408C139.799 78.144 141.115 79.362 142.935 79.362C144.741 79.362 146.071 78.144 146.071 76.408C146.071 74.686 144.741 73.454 142.935 73.454ZM143.635 69.632H142.193V71.382H139.183V72.558H146.589V71.382H143.635V69.632ZM151.013 74.518H149.067V69.436H147.611V82.092H149.067V75.722H151.013V74.518ZM156.01 70.598H154.61V72.88C154.61 75.036 153.742 77.304 151.95 78.368L152.832 79.46C154.05 78.718 154.876 77.388 155.324 75.834C155.758 77.248 156.514 78.48 157.662 79.18L158.474 78.06C156.78 76.996 156.01 74.854 156.01 72.81V70.598ZM158.978 73.86H157.116V75.036H158.978V81.49H160.336V69.674H158.978V73.86ZM161.554 69.436V82.078H162.926V69.436H161.554ZM169.127 76.604C169.617 76.716 170.163 76.772 170.723 76.772C171.283 76.772 171.829 76.716 172.319 76.59V79.348H169.127V76.604ZM170.723 71.298C172.627 71.298 173.957 72.138 173.957 73.468C173.957 74.812 172.627 75.652 170.723 75.652C168.805 75.652 167.475 74.812 167.475 73.468C167.475 72.138 168.805 71.298 170.723 71.298ZM173.761 79.348V76.058C174.769 75.484 175.371 74.588 175.371 73.468C175.371 71.452 173.411 70.164 170.723 70.164C168.021 70.164 166.075 71.452 166.075 73.468C166.075 74.588 166.677 75.498 167.685 76.058V79.348H165.011V80.524H176.463V79.348H173.761Z" fill="#6C6C84"/>
<path d="M7.21 76.114C7.28 75.708 7.322 75.288 7.322 74.812C7.322 74.28 7.266 73.804 7.168 73.342H9.758V76.114H7.21ZM4.116 77.99C3.038 77.99 2.282 76.8 2.282 74.812C2.282 72.852 3.038 71.662 4.116 71.662C5.208 71.662 5.95 72.852 5.95 74.812C5.95 76.8 5.208 77.99 4.116 77.99ZM9.758 69.422V72.152H6.776C6.202 71.018 5.264 70.36 4.116 70.36C2.254 70.36 0.924 72.096 0.924 74.812C0.924 77.556 2.254 79.278 4.116 79.278C5.32 79.278 6.314 78.55 6.846 77.304H9.758V82.106H11.214V69.422H9.758ZM14.3069 70.766V71.942H18.8149C18.5629 74.854 16.9949 77.08 13.6769 78.676L14.4469 79.824C18.7869 77.724 20.2989 74.532 20.2989 70.766H14.3069ZM22.5809 69.436V82.078H24.0229V69.436H22.5809ZM35.0538 71.592H27.9278V74.434H36.7058V73.426H29.3418V72.53H36.4818V69.744H27.8998V70.738H35.0538V71.592ZM29.2438 79.978H36.5238V77.15H27.7878V78.144H35.0958V79.04H27.8158V81.938H36.9018V80.944H29.2438V79.978ZM26.4578 75.232V76.296H37.9238V75.232H26.4578ZM52.6173 72.222H45.3933V69.59H43.9653V73.384H52.6173V72.222ZM53.9473 75.498V74.322H42.4673V75.498H47.4653V76.646H43.8392V77.752H51.0913V78.718H43.8813V81.966H52.9253V80.846H45.3233V79.74H52.5333V76.646H48.9073V75.498H53.9473ZM57.2362 75.134H61.4642V70.556H55.7942V71.718H60.0502V73.972H55.8222V79.11H56.8162C59.0282 79.11 60.6662 79.04 62.5562 78.718L62.4302 77.542C60.6942 77.836 59.1822 77.906 57.2362 77.92V75.134ZM64.4042 69.408V74.154H62.1922V75.344H64.4042V82.092H65.8462V69.408H64.4042Z" fill="#7047EB"/>
<path d="M26.14 61.376V58.394H29.878V57.232H22.556V53.55H29.766V52.388H21.114V58.394H24.698V61.376H19.714V62.566H31.166V61.376H26.14ZM37.5909 57.386H34.5529V53.634H37.5909V57.386ZM41.6229 54.726V56.266H38.9909V54.726H41.6229ZM38.9909 57.428H41.6229V60.662H43.0649V51.436H41.6229V53.55H38.9909V52.486H33.1389V58.534H38.9909V57.428ZM36.2889 62.664V59.822H34.8329V63.84H43.3589V62.664H36.2889ZM57.5623 51.422V64.106H59.0183V51.422H57.5623ZM52.2843 52.36C50.4083 52.36 49.0363 54.096 49.0363 56.812C49.0363 59.556 50.4083 61.278 52.2843 61.278C54.1743 61.278 55.5463 59.556 55.5463 56.812C55.5463 54.096 54.1743 52.36 52.2843 52.36ZM52.2843 53.662C53.3903 53.662 54.1603 54.852 54.1603 56.812C54.1603 58.8 53.3903 59.99 52.2843 59.99C51.1923 59.99 50.4223 58.8 50.4223 56.812C50.4223 54.852 51.1923 53.662 52.2843 53.662ZM62.1673 52.626V60.984H68.1033V52.626H62.1673ZM66.6893 53.774V59.822H63.5813V53.774H66.6893ZM70.4413 51.422V64.106H71.8973V51.422H70.4413ZM79.0362 53.886H81.8502V52.696H74.7662V53.886H77.5802V55.09C77.5802 57.26 76.2782 59.612 74.3182 60.522L75.1442 61.67C76.6282 60.956 77.7622 59.458 78.3222 57.694C78.9102 59.332 80.0442 60.704 81.5142 61.348L82.3122 60.214C80.3382 59.374 79.0362 57.19 79.0362 55.09V53.886ZM83.3202 51.436V64.078H84.7762V51.436H83.3202ZM87.8691 52.766V53.942H92.2931C91.9991 56.854 90.3331 59.08 87.2391 60.662L88.0371 61.768C92.1671 59.682 93.7351 56.434 93.7351 52.766H87.8691ZM98.9571 56.42H97.0391V51.422H95.5971V64.064H97.0391V57.624H98.9571V56.42ZM104.831 54.894C104.831 53.844 105.629 53.158 106.735 53.158C107.841 53.158 108.653 53.844 108.653 54.894C108.653 55.958 107.841 56.658 106.735 56.658C105.629 56.658 104.831 55.958 104.831 54.894ZM112.307 55.468V58.128H113.749V51.45H112.307V54.278H109.954C109.675 52.892 108.401 51.968 106.735 51.968C104.845 51.968 103.445 53.172 103.445 54.894C103.445 56.644 104.845 57.848 106.735 57.848C108.415 57.848 109.689 56.896 109.969 55.468H112.307ZM107.841 62.818H106.035V61.348H107.841V62.818ZM107.841 58.856V60.284H106.035V58.856H104.691V63.924H109.171V58.856H107.841ZM112.825 58.758H111.397V59.766C111.397 61.012 110.683 62.328 109.171 62.958L109.899 64.05C110.963 63.602 111.677 62.79 112.097 61.838C112.489 62.804 113.217 63.616 114.337 64.05L115.051 62.958C113.525 62.398 112.825 61.11 112.825 59.766V58.758ZM126.977 55.216C124.471 54.894 122.609 53.508 122.609 52.052V51.562H121.125V52.052C121.125 53.522 119.291 54.894 116.757 55.216L117.289 56.336C119.347 56.056 121.055 55.104 121.867 53.788C122.693 55.104 124.401 56.056 126.459 56.336L126.977 55.216ZM124.681 62.776H118.983V61.418H124.681V62.776ZM124.681 60.312H118.983V59.024H117.555V63.924H126.123V59.024H124.681V60.312ZM116.141 57.092V58.24H127.593V57.092H116.141ZM131.204 52.668H129.776V60.886H130.854C132.814 60.886 134.858 60.732 137.028 60.284L136.874 59.08C134.886 59.486 132.996 59.64 131.204 59.654V52.668ZM138.036 51.436V64.078H139.478V51.436H138.036ZM143.859 53.802H148.297V52.626H142.417V60.984H143.453C145.735 60.984 147.443 60.914 149.361 60.564L149.207 59.374C147.443 59.682 145.903 59.766 143.859 59.78V53.802ZM153.673 56.294H151.699V51.422H150.257V64.092H151.699V57.484H153.673V56.294ZM156.164 63.182C156.766 63.182 157.242 62.72 157.242 62.062C157.242 61.39 156.766 60.914 156.164 60.914C155.562 60.914 155.086 61.39 155.086 62.062C155.086 62.72 155.562 63.182 156.164 63.182Z" fill="#6C6C84"/>
<rect x="71" width="36" height="36" rx="15" fill="#F7F7F8"/>
<path d="M82 13.7273C82 13.004 82.2873 12.3103 82.7988 11.7988C83.3103 11.2873 84.004 11 84.7273 11H92.9091C93.6324 11 94.3261 11.2873 94.8376 11.7988C95.349 12.3103 95.6364 13.004 95.6364 13.7273V21.9091C95.6364 22.6324 95.349 23.3261 94.8376 23.8376C94.3261 24.349 93.6324 24.6364 92.9091 24.6364H84.7273C84.004 24.6364 83.3103 24.349 82.7988 23.8376C82.2873 23.3261 82 22.6324 82 21.9091V13.7273Z" stroke="#6C6C84" stroke-width="1.66667" stroke-linecap="round" stroke-linejoin="round"/>
<path d="M86.4318 17.1361C87.3732 17.1361 88.1364 16.373 88.1364 15.4316C88.1364 14.4902 87.3732 13.7271 86.4318 13.7271C85.4904 13.7271 84.7273 14.4902 84.7273 15.4316C84.7273 16.373 85.4904 17.1361 86.4318 17.1361Z" stroke="#6C6C84" stroke-width="1.66667" stroke-linecap="round" stroke-linejoin="round"/>
<path d="M90.5405 18.2417L84.7273 24.6364H92.9998C93.6991 24.6364 94.3697 24.3586 94.8641 23.8642C95.3586 23.3697 95.6364 22.6991 95.6364 21.9998V21.9092C95.6364 21.5914 95.5171 21.4694 95.3023 21.2342L92.5546 18.2376C92.4265 18.0979 92.2707 17.9864 92.0972 17.9103C91.9236 17.8341 91.7361 17.795 91.5466 17.7954C91.3571 17.7958 91.1698 17.8357 90.9965 17.9125C90.8233 17.9893 90.668 18.1014 90.5405 18.2417V18.2417Z" stroke="#6C6C84" stroke-width="1.66667" stroke-linecap="round" stroke-linejoin="round"/>
</svg>
