<svg width="14" height="14" viewBox="0 0 14 14" fill="none" xmlns="http://www.w3.org/2000/svg">
    <path fill-rule="evenodd" clip-rule="evenodd" d="M5.552 2.92a.453.453 0 0 1 .32-.132h2.106a.453.453 0 0 1 .453.452v.453H5.42V3.24c0-.12.047-.235.132-.32zm4.08.32v.453h.979a.58.58 0 0 1 .005 0h1.047a.6.6 0 1 1 0 1.2h-.497l-.482 6.27A1.654 1.654 0 0 1 9.03 12.79H4.82a1.653 1.653 0 0 1-1.653-1.627l-.482-6.27h-.498a.6.6 0 0 1 0-1.2H4.22V3.24a1.653 1.653 0 0 1 1.653-1.652h2.105A1.653 1.653 0 0 1 9.631 3.24zM3.887 4.893l.477 6.198.002.046a.453.453 0 0 0 .453.453H9.03a.453.453 0 0 0 .453-.453c0-.015 0-.03.002-.046l.477-6.198H3.888z" fill="#6C6C84"/>
</svg>
