<svg width="24" height="24" viewBox="0 0 24 24" fill="none" xmlns="http://www.w3.org/2000/svg">
<path d="M18.7376 7.8316L16.1815 5.2624C16.0126 5.09434 15.784 5 15.5457 5C15.3074 5 15.0788 5.09434 14.9099 5.2624L5.84807 14.3112L5.0207 17.8819C4.99216 18.0125 4.99314 18.1477 5.02357 18.2778C5.054 18.4079 5.1131 18.5296 5.19657 18.6339C5.28004 18.7383 5.38576 18.8226 5.50601 18.8809C5.62626 18.9391 5.75801 18.9698 5.89162 18.9706C5.95388 18.9769 6.01661 18.9769 6.07887 18.9706L9.6888 18.1432L18.7376 9.10313C18.9057 8.93422 19 8.70564 19 8.46736C19 8.22909 18.9057 8.00051 18.7376 7.8316ZM9.25335 17.3594L5.86985 18.0692L6.6406 14.751L13.4207 7.99707L16.0334 10.6098L9.25335 17.3594ZM16.6169 9.9784L14.0042 7.36566L15.5196 5.85898L18.0888 8.47172L16.6169 9.9784Z" fill="black"/>
</svg>
