<svg width="80" height="80" viewBox="0 0 80 80" fill="none" xmlns="http://www.w3.org/2000/svg">
<path d="M20 5C18.0109 5 16.1032 5.79018 14.6967 7.1967C13.2902 8.60322 12.5 10.5109 12.5 12.5V67.5C12.5 69.4891 13.2902 71.3968 14.6967 72.8033C16.1032 74.2098 18.0109 75 20 75H60C61.9891 75 63.8968 74.2098 65.3033 72.8033C66.7098 71.3968 67.5 69.4891 67.5 67.5V27.07C67.4989 25.0819 66.7085 23.1756 65.3025 21.77L50.7325 7.195C49.3259 5.7893 47.4186 4.99976 45.43 5H20ZM17.5 12.5C17.5 11.837 17.7634 11.2011 18.2322 10.7322C18.7011 10.2634 19.337 10 20 10H42.5V22.5C42.5 24.4891 43.2902 26.3968 44.6967 27.8033C46.1032 29.2098 48.0109 30 50 30H62.5V67.5C62.5 68.163 62.2366 68.7989 61.7678 69.2678C61.2989 69.7366 60.663 70 60 70H20C19.337 70 18.7011 69.7366 18.2322 69.2678C17.7634 68.7989 17.5 68.163 17.5 67.5V12.5ZM61.465 25H50C49.337 25 48.7011 24.7366 48.2322 24.2678C47.7634 23.7989 47.5 23.163 47.5 22.5V11.035L61.465 25Z" fill="#ABACBE"/>
<path d="M35.2678 41.0662C35.7366 40.5974 36 39.9615 36 39.2985C36 38.6354 35.7366 37.9995 35.2678 37.5307C34.7989 37.0619 34.163 36.7985 33.5 36.7985C32.837 36.7985 32.2011 37.0619 31.7322 37.5307C31.2634 37.9995 31 38.6354 31 39.2985C31 39.9615 31.2634 40.5974 31.7322 41.0662C32.2011 41.5351 32.837 41.7985 33.5 41.7985C34.163 41.7985 34.7989 41.5351 35.2678 41.0662Z" fill="#ABACBE"/>
<path d="M47.7678 41.0662C47.2989 41.5351 46.663 41.7985 46 41.7985C45.337 41.7985 44.7011 41.5351 44.2322 41.0662C43.7634 40.5974 43.5 39.9615 43.5 39.2985C43.5 38.6354 43.7634 37.9995 44.2322 37.5307C44.7011 37.0619 45.337 36.7985 46 36.7985C46.663 36.7985 47.2989 37.0619 47.7678 37.5307C48.2366 37.9995 48.5 38.6354 48.5 39.2985C48.5 39.9615 48.2366 40.5974 47.7678 41.0662Z" fill="#ABACBE"/>
<path d="M37.8075 50.7585C40.4575 48.991 43.5725 48.0485 46.7575 48.0485H48.75C49.0815 48.0485 49.3995 48.1802 49.6339 48.4146C49.8683 48.649 50 48.9669 50 49.2985C50 49.63 49.8683 49.9479 49.6339 50.1823C49.3995 50.4168 49.0815 50.5485 48.75 50.5485H46.7575C44.065 50.5481 41.4328 51.345 39.1925 52.8385C38.9167 53.0107 38.5846 53.0686 38.2667 53C37.9489 52.9314 37.6703 52.7416 37.4901 52.4709C37.3098 52.2003 37.2422 51.87 37.3014 51.5503C37.3607 51.2306 37.5422 50.9465 37.8075 50.7585Z" fill="#ABACBE"/>
</svg>
