<svg width="17" height="17" viewBox="0 0 17 17" fill="none" xmlns="http://www.w3.org/2000/svg">
<path d="M11.9116 10.4822H11.1588L10.8919 10.2249C11.8258 9.13855 12.388 7.72823 12.388 6.19402C12.388 2.77301 9.61502 0 6.19402 0C2.77301 0 0 2.77301 0 6.19402C0 9.61502 2.77301 12.388 6.19402 12.388C7.72823 12.388 9.13856 11.8258 10.2249 10.8919L10.4822 11.1588V11.9116L15.2468 16.6667L16.6667 15.2468L11.9116 10.4822V10.4822ZM6.19402 10.4822C3.82123 10.4822 1.90585 8.5668 1.90585 6.19402C1.90585 3.82123 3.82123 1.90585 6.19402 1.90585C8.5668 1.90585 10.4822 3.82123 10.4822 6.19402C10.4822 8.5668 8.5668 10.4822 6.19402 10.4822Z" fill="#808192"/>
</svg>
